<svg xmlns="http://www.w3.org/2000/svg" width="43" height="43" viewBox="0 0 43 43" fill="none">
  <defs>
    <linearGradient id="maxfill" x1="2" y1="2" x2="42" y2="42" gradientUnits="userSpaceOnUse">
      <stop offset="0%" stop-color="#06affb"/>
      <stop offset="35%" stop-color="#0055f1"/>
      <stop offset="70%" stop-color="#8900ac"/>
      <stop offset="100%" stop-color="#06affb"/>
    </linearGradient>
  </defs>
  <path d="M22.39 41.89c-3.93 0-5.75-.58-8.9-2.9-2.02 2.61-8.34 4.63-8.62 1.17 0-2.6-.58-4.8-1.22-7.2C2.87 30 2 26.72 2 21.94 2 10.56 11.28 2 22.28 2c11 0 19.63 8.98 19.63 20.06 0 11.07-8.9 19.83-19.52 19.83Zm.2-30.02c-5.22-.27-9.3 3.37-10.2 9.08-.74 4.72.58 10.48 1.7 10.77.54.13 1.9-.98 2.74-1.82 1.39.9 2.97 1.6 4.73 1.7a9.96 9.96 0 0 0 10.4-9.34 10 10 0 0 0-9.37-10.39Z" fill="url(#maxfill)" fill-rule="evenodd"/>
</svg>
